<?xml version="1.0" encoding="iso-8859-1"?>
<!-- Generator: Adobe Illustrator 19.0.0, SVG Export Plug-In . SVG Version: 6.00 Build 0)  -->
<svg version="1.1" id="Capa_1" xmlns="http://www.w3.org/2000/svg" xmlns:xlink="http://www.w3.org/1999/xlink" x="0px" y="0px"
	 viewBox="0 0 380 380" style="enable-background:new 0 0 380 380;" xml:space="preserve">
<g id="XMLID_789_">
	<g id="XMLID_790_">
		<polygon id="XMLID_791_" style="fill:#FF9811;" points="137.886,0 157.808,49.971 211.488,53.476 170.12,87.864 183.374,140 
			137.886,111.283 92.397,140 105.651,87.864 64.284,53.476 117.964,49.971 		"/>
		<polygon id="XMLID_792_" style="fill:#BF720D;" points="137.886,0 137.886,111.283 92.397,140 105.651,87.864 64.284,53.476 
			117.964,49.971 		"/>
	</g>
	<path id="XMLID_793_" style="fill:#FFD6A0;" d="M292.639,184.693c-4.205,0-8.144,1.131-11.538,3.095l-0.001-5.634
		c0-12.746-10.332-23.077-23.076-23.077c-4.205,0.001-8.143,1.13-11.539,3.094l0.001-10.094
		c-0.001-12.746-10.333-23.077-23.077-23.078c-7.295,0.001-13.796,3.391-18.025,8.676v25.99h-39.667v197.104h130l-0.001-60
		c11.289-1.505,20.001-11.164,20-22.866l0.001-70.134C315.716,195.024,305.385,184.693,292.639,184.693z"/>
	<path id="XMLID_794_" style="fill:#FFD6A0;" d="M210.716,231.828c0,12.427-10.073,22.5-22.5,22.5l0,0
		c-12.427,0-22.5-10.073-22.5-22.5V85.578c0-12.427,10.073-22.5,22.5-22.5l0,0c12.427,0,22.5,10.073,22.5,22.5V231.828z"/>
	<path id="XMLID_34_" style="fill:#FFD6A0;" d="M187.855,287.834c3.782,11.837-2.747,24.498-14.584,28.281l0,0
		c-11.837,3.782-24.499-2.746-28.281-14.584l-32.848-102.217c-3.782-11.837,2.746-24.499,14.584-28.282l0,0
		c11.837-3.782,24.499,2.747,28.281,14.584L187.855,287.834z"/>
	<path id="XMLID_795_" style="fill:#FFC170;" d="M128.109,249l16.881,52.531c2.979,9.325,11.47,15.351,20.726,15.642v43.597
		l130-20.771L128.109,249z"/>
	<rect id="XMLID_32_" x="230.605" y="340" style="fill:#0052B4;" width="75" height="40"/>
	<rect id="XMLID_3_" x="155.605" y="340" style="fill:#006DF0;" width="75" height="40"/>
</g>
<g>
</g>
<g>
</g>
<g>
</g>
<g>
</g>
<g>
</g>
<g>
</g>
<g>
</g>
<g>
</g>
<g>
</g>
<g>
</g>
<g>
</g>
<g>
</g>
<g>
</g>
<g>
</g>
<g>
</g>
</svg>
