<?xml version="1.0" encoding="iso-8859-1"?>
<!-- Generator: Adobe Illustrator 19.0.0, SVG Export Plug-In . SVG Version: 6.00 Build 0)  -->
<svg version="1.1" id="Layer_1" xmlns="http://www.w3.org/2000/svg" xmlns:xlink="http://www.w3.org/1999/xlink" x="0px" y="0px"
	 viewBox="0 0 511.999 511.999" style="enable-background:new 0 0 511.999 511.999;" xml:space="preserve">
<path style="fill:#FF6464;" d="M317.794,450.216V353.11H194.205v97.105h-31.774c-3.542,0-4.864,4.645-1.853,6.509l84.015,52.029
	c6.989,4.328,15.825,4.328,22.814,0l84.015-52.029c3.011-1.865,1.691-6.509-1.853-6.509H317.794z"/>
<rect x="194.211" y="353.11" style="fill:#D2555A;" width="123.589" height="35.311"/>
<path style="fill:#707487;" d="M423.727,370.766H88.272c-9.751,0-17.656-7.904-17.656-17.656V17.656C70.617,7.904,78.521,0,88.272,0
	h280.344c7.024,0,13.759,2.79,18.726,7.756l46.283,46.281c4.967,4.967,7.757,11.703,7.757,18.727V353.11
	C441.383,362.862,433.478,370.766,423.727,370.766z"/>
<g>
	<path style="fill:#5B5D6E;" d="M397.244,370.766H114.756V176.555c0-9.751,7.904-17.656,17.656-17.656h247.177
		c9.751,0,17.655,7.904,17.655,17.656V370.766z"/>
	<path style="fill:#5B5D6E;" d="M335.45,123.589H132.411c-9.751,0-17.656-7.904-17.656-17.656V0h238.349v105.933
		C353.105,115.684,345.201,123.589,335.45,123.589z"/>
</g>
<path style="fill:#D7DEED;" d="M211.861,123.589H335.45c9.751,0,17.656-7.904,17.656-17.656V0h-158.9v105.933
	C194.205,115.684,202.111,123.589,211.861,123.589z"/>
<path style="fill:#5B5D6E;" d="M326.622,105.933h-35.311c-4.875,0-8.828-3.953-8.828-8.828V26.483c0-4.875,3.953-8.828,8.828-8.828
	h35.311c4.875,0,8.828,3.953,8.828,8.828v70.622C335.45,101.98,331.498,105.933,326.622,105.933z"/>
<path style="fill:#EFF2FA;" d="M370.761,353.11H141.239c-4.875,0-8.828-3.953-8.828-8.828v-158.9c0-4.875,3.953-8.828,8.828-8.828
	h229.522c4.875,0,8.828,3.953,8.828,8.828v158.9C379.588,349.158,375.637,353.11,370.761,353.11z"/>
<path style="fill:#FF6464;" d="M370.761,353.11H141.239c-4.875,0-8.828-3.953-8.828-8.828v-17.656c0-4.875,3.953-8.828,8.828-8.828
	h229.522c4.875,0,8.828,3.953,8.828,8.828v17.656C379.588,349.158,375.637,353.11,370.761,353.11z"/>
<g>
	<path style="fill:#F7ABAF;" d="M353.105,291.316H158.894c-4.875,0-8.828-3.953-8.828-8.828l0,0c0-4.875,3.953-8.828,8.828-8.828
		h194.211c4.875,0,8.828,3.953,8.828,8.828l0,0C361.933,287.363,357.981,291.316,353.105,291.316z"/>
	<path style="fill:#F7ABAF;" d="M353.105,256.005H158.894c-4.875,0-8.828-3.953-8.828-8.828l0,0c0-4.875,3.953-8.828,8.828-8.828
		h194.211c4.875,0,8.828,3.953,8.828,8.828l0,0C361.933,252.052,357.981,256.005,353.105,256.005z"/>
	<path style="fill:#F7ABAF;" d="M353.105,220.694H158.894c-4.875,0-8.828-3.953-8.828-8.828l0,0c0-4.875,3.953-8.828,8.828-8.828
		h194.211c4.875,0,8.828,3.953,8.828,8.828l0,0C361.933,216.741,357.981,220.694,353.105,220.694z"/>
</g>
<g>
</g>
<g>
</g>
<g>
</g>
<g>
</g>
<g>
</g>
<g>
</g>
<g>
</g>
<g>
</g>
<g>
</g>
<g>
</g>
<g>
</g>
<g>
</g>
<g>
</g>
<g>
</g>
<g>
</g>
</svg>
